<?xml version="1.0" encoding="UTF-8" standalone="no"?>
<!-- Created with Inkscape (http://www.inkscape.org/) -->

<svg
   xmlns:dc="http://purl.org/dc/elements/1.1/"
   xmlns:cc="http://creativecommons.org/ns#"
   xmlns:rdf="http://www.w3.org/1999/02/22-rdf-syntax-ns#"
   xmlns:svg="http://www.w3.org/2000/svg"
   xmlns="http://www.w3.org/2000/svg"
   xmlns:sodipodi="http://sodipodi.sourceforge.net/DTD/sodipodi-0.dtd"
   xmlns:inkscape="http://www.inkscape.org/namespaces/inkscape"
   width="64"
   height="64"
   id="svg2"
   version="1.1"
   inkscape:version="0.48.3.1 r9886"
   sodipodi:docname="dot_white_thick.svg">
  <defs
     id="defs4" />
  <sodipodi:namedview
     id="base"
     pagecolor="#ffffff"
     bordercolor="#666666"
     borderopacity="1.0"
     inkscape:pageopacity="0"
     inkscape:pageshadow="2"
     inkscape:zoom="7.6676892"
     inkscape:cx="20.340446"
     inkscape:cy="32"
     inkscape:document-units="px"
     inkscape:current-layer="layer1"
     showgrid="false"
     inkscape:window-width="1920"
     inkscape:window-height="985"
     inkscape:window-x="0"
     inkscape:window-y="25"
     inkscape:window-maximized="1" />
  <metadata
     id="metadata7">
    <rdf:RDF>
      <cc:Work
         rdf:about="">
        <dc:format>image/svg+xml</dc:format>
        <dc:type
           rdf:resource="http://purl.org/dc/dcmitype/StillImage" />
        <dc:title />
      </cc:Work>
    </rdf:RDF>
  </metadata>
  <g
     inkscape:label="Calque 1"
     inkscape:groupmode="layer"
     id="layer1"
     transform="translate(0,-988.36218)">
    <path
       transform="translate(10.357489,973.59889)"
       style="fill:#ffffff;fill-opacity:1;stroke:none"
       d="m 49.128345,46.763287 c 0,15.180007 -12.305827,27.485834 -27.485834,27.485834 -15.1800067,0 -27.4858338,-12.305827 -27.4858338,-27.485834 0,-15.180007 12.3058271,-27.485835 27.4858338,-27.485835 15.180007,0 27.485834,12.305828 27.485834,27.485835 z"
       id="path3761" />
    <path
       style="fill:#222222;fill-opacity:1;stroke:none"
       d="m 32,995.92468 c -13.489622,0 -24.4375,10.94792 -24.4375,24.43752 0,13.4896 10.947878,24.4375 24.4375,24.4375 13.489622,0 24.4375,-10.9479 24.4375,-24.4375 0,-13.4896 -10.947878,-24.43752 -24.4375,-24.43752 z"
       id="path2986" />
    <path
       style="fill:#ffffff;fill-opacity:1;stroke:none"
       d="m 32,1007.5184 c 7.090306,0 12.84375,5.7535 12.84375,12.8438 0,7.0903 -5.753444,12.8437 -12.84375,12.8437 -7.090306,0 -12.84375,-5.7534 -12.84375,-12.8437 0,-7.0903 5.753444,-12.8438 12.84375,-12.8438 z"
       id="path3757" />
  </g>
</svg>
