<svg xmlns="http://www.w3.org/2000/svg" width="64" height="64"><g><path d="M59.485 32c0 15.18-12.305 27.486-27.485 27.486S4.514 47.18 4.514 32C4.514 16.82 16.82 4.514 32 4.514 47.18 4.514 59.485 16.82 59.485 32z" fill="#fff"/><path d="M32 7.563C18.51 7.563 7.562 18.51 7.562 32 7.563 45.49 18.51 56.438 32 56.438c13.49 0 24.438-10.948 24.438-24.438C56.438 18.51 45.49 7.562 32 7.562z" fill="#222"/><path d="M32 19.156c7.09 0 12.844 5.754 12.844 12.844S39.09 44.844 32 44.844 19.156 39.09 19.156 32 24.91 19.156 32 19.156z" fill="#fff"/></g></svg>