<?xml version="1.0" encoding="UTF-8" standalone="no"?>
<!-- Created with Inkscape (http://www.inkscape.org/) -->

<svg
   xmlns:dc="http://purl.org/dc/elements/1.1/"
   xmlns:cc="http://creativecommons.org/ns#"
   xmlns:rdf="http://www.w3.org/1999/02/22-rdf-syntax-ns#"
   xmlns:svg="http://www.w3.org/2000/svg"
   xmlns="http://www.w3.org/2000/svg"
   xmlns:sodipodi="http://sodipodi.sourceforge.net/DTD/sodipodi-0.dtd"
   xmlns:inkscape="http://www.inkscape.org/namespaces/inkscape"
   width="64"
   height="64"
   id="svg2"
   version="1.1"
   inkscape:version="0.48.2 r9819"
   sodipodi:docname="dot_white_thick.svg">
  <defs
     id="defs4" />
  <sodipodi:namedview
     id="base"
     pagecolor="#ffffff"
     bordercolor="#666666"
     borderopacity="1.0"
     inkscape:pageopacity="0.0"
     inkscape:pageshadow="2"
     inkscape:zoom="7.6676892"
     inkscape:cx="-12.863582"
     inkscape:cy="32"
     inkscape:document-units="px"
     inkscape:current-layer="layer1"
     showgrid="false"
     inkscape:window-width="1920"
     inkscape:window-height="1017"
     inkscape:window-x="-8"
     inkscape:window-y="-8"
     inkscape:window-maximized="1" />
  <metadata
     id="metadata7">
    <rdf:RDF>
      <cc:Work
         rdf:about="">
        <dc:format>image/svg+xml</dc:format>
        <dc:type
           rdf:resource="http://purl.org/dc/dcmitype/StillImage" />
        <dc:title />
      </cc:Work>
    </rdf:RDF>
  </metadata>
  <g
     inkscape:label="Calque 1"
     inkscape:groupmode="layer"
     id="layer1"
     transform="translate(0,-988.36218)">
    <path
       transform="translate(10.357489,973.59889)"
       d="m 49.128345,46.763287 a 27.485834,27.485834 0 1 1 -54.9716678,0 27.485834,27.485834 0 1 1 54.9716678,0 z"
       sodipodi:ry="27.485834"
       sodipodi:rx="27.485834"
       sodipodi:cy="46.763287"
       sodipodi:cx="21.642511"
       id="path3761"
       style="opacity:0.65;fill:#ffffff;fill-opacity:1;stroke:none"
       sodipodi:type="arc"
       inkscape:export-filename="E:\openstreetmap\tilemill\icons\dot_white_thick.png"
       inkscape:export-xdpi="26.195312"
       inkscape:export-ydpi="26.195312" />
    <path
       inkscape:connector-curvature="0"
       style="fill:#3f3f3f;fill-opacity:1;stroke:none"
       d="m 32,995.92468 c -13.489622,0 -24.4375,10.94792 -24.4375,24.43752 0,13.4896 10.947878,24.4375 24.4375,24.4375 13.489622,0 24.4375,-10.9479 24.4375,-24.4375 0,-13.4896 -10.947878,-24.43752 -24.4375,-24.43752 z m 0,11.59372 c 7.090306,0 12.84375,5.7535 12.84375,12.8438 0,7.0903 -5.753444,12.8437 -12.84375,12.8437 -7.090306,0 -12.84375,-5.7534 -12.84375,-12.8437 0,-7.0903 5.753444,-12.8438 12.84375,-12.8438 z"
       id="path3757" />
  </g>
</svg>
