<?xml version="1.0" encoding="UTF-8" standalone="no"?>
<!-- Created with Inkscape (http://www.inkscape.org/) -->

<svg
   xmlns:dc="http://purl.org/dc/elements/1.1/"
   xmlns:cc="http://creativecommons.org/ns#"
   xmlns:rdf="http://www.w3.org/1999/02/22-rdf-syntax-ns#"
   xmlns:svg="http://www.w3.org/2000/svg"
   xmlns="http://www.w3.org/2000/svg"
   xmlns:sodipodi="http://sodipodi.sourceforge.net/DTD/sodipodi-0.dtd"
   xmlns:inkscape="http://www.inkscape.org/namespaces/inkscape"
   width="64"
   height="64"
   id="svg2"
   version="1.1"
   inkscape:version="0.48.2 r9819"
   sodipodi:docname="Nouveau document 1">
  <defs
     id="defs4" />
  <sodipodi:namedview
     id="base"
     pagecolor="#ffffff"
     bordercolor="#666666"
     borderopacity="1.0"
     inkscape:pageopacity="0.0"
     inkscape:pageshadow="2"
     inkscape:zoom="4.574097"
     inkscape:cx="25.553325"
     inkscape:cy="72.227724"
     inkscape:document-units="px"
     inkscape:current-layer="layer1"
     showgrid="false"
     inkscape:window-width="1920"
     inkscape:window-height="1017"
     inkscape:window-x="-8"
     inkscape:window-y="-8"
     inkscape:window-maximized="1" />
  <metadata
     id="metadata7">
    <rdf:RDF>
      <cc:Work
         rdf:about="">
        <dc:format>image/svg+xml</dc:format>
        <dc:type
           rdf:resource="http://purl.org/dc/dcmitype/StillImage" />
        <dc:title></dc:title>
      </cc:Work>
    </rdf:RDF>
  </metadata>
  <g
     inkscape:label="Calque 1"
     inkscape:groupmode="layer"
     id="layer1"
     transform="translate(0,-988.36218)">
    <rect
       style="opacity:0.46511631;fill:#cfcfcf;fill-opacity:1;stroke:none"
       id="rect3759"
       width="185.82903"
       height="141.44868"
       x="-227.14865"
       y="947.64203" />
    <g
       id="g3785"
       transform="translate(0,-59.028043)">
      <path
         transform="translate(-27.026939,905.60733)"
         d="m 49.128345,46.763287 c 0,15.180007 -12.305827,27.485834 -27.485834,27.485834 -15.1800067,0 -27.4858338,-12.305827 -27.4858338,-27.485834 0,-15.180007 12.3058271,-27.485835 27.4858338,-27.485835 15.180007,0 27.485834,12.305828 27.485834,27.485835 z"
         sodipodi:ry="27.485834"
         sodipodi:rx="27.485834"
         sodipodi:cy="46.763287"
         sodipodi:cx="21.642511"
         id="path3763"
         style="fill:#ffffff;fill-opacity:1;stroke:none"
         sodipodi:type="arc"
         inkscape:export-filename="E:\openstreetmap\tilemill\icons\dot_black.png"
         inkscape:export-xdpi="26.195312"
         inkscape:export-ydpi="26.195312" />
      <path
         sodipodi:type="arc"
         style="fill:#000000;fill-opacity:1;stroke:none"
         id="path3765"
         sodipodi:cx="21.642511"
         sodipodi:cy="46.763287"
         sodipodi:rx="24.425121"
         sodipodi:ry="24.425121"
         d="m 46.067633,46.763287 c 0,13.489622 -10.9355,24.425121 -24.425122,24.425121 -13.4896216,0 -24.4251209,-10.935499 -24.4251209,-24.425121 0,-13.489622 10.9354993,-24.425122 24.4251209,-24.425122 13.489622,0 24.425122,10.9355 24.425122,24.425122 z"
         transform="translate(-27.026939,905.60733)"
         inkscape:export-filename="E:\openstreetmap\tilemill\icons\dot_black.png"
         inkscape:export-xdpi="26.195312"
         inkscape:export-ydpi="26.195312" />
    </g>
    <g
       id="g3775"
       transform="translate(37.056503,-127.0196)">
      <path
         inkscape:export-ydpi="26.195312"
         inkscape:export-xdpi="26.195312"
         inkscape:export-filename="E:\openstreetmap\tilemill\icons\dot_white_thick.png"
         sodipodi:type="arc"
         style="fill:#ffffff;fill-opacity:1;stroke:none"
         id="path3761"
         sodipodi:cx="21.642511"
         sodipodi:cy="46.763287"
         sodipodi:rx="27.485834"
         sodipodi:ry="27.485834"
         d="m 49.128345,46.763287 c 0,15.180007 -12.305827,27.485834 -27.485834,27.485834 -15.1800067,0 -27.4858338,-12.305827 -27.4858338,-27.485834 0,-15.180007 12.3058271,-27.485835 27.4858338,-27.485835 15.180007,0 27.485834,12.305828 27.485834,27.485835 z"
         transform="translate(10.357489,973.59889)" />
      <path
         inkscape:export-ydpi="26.195312"
         inkscape:export-xdpi="26.195312"
         inkscape:export-filename="E:\openstreetmap\tilemill\icons\dot_white_thick.png"
         transform="translate(10.357489,973.59889)"
         d="m 46.067633,46.763287 c 0,13.489622 -10.9355,24.425121 -24.425122,24.425121 -13.4896216,0 -24.4251209,-10.935499 -24.4251209,-24.425121 0,-13.489622 10.9354993,-24.425122 24.4251209,-24.425122 13.489622,0 24.425122,10.9355 24.425122,24.425122 z"
         sodipodi:ry="24.425121"
         sodipodi:rx="24.425121"
         sodipodi:cy="46.763287"
         sodipodi:cx="21.642511"
         id="path3757"
         style="fill:#000000;fill-opacity:1;stroke:none"
         sodipodi:type="arc" />
      <path
         sodipodi:type="arc"
         style="fill:#ffffff;fill-opacity:1;stroke:none"
         id="path3767"
         sodipodi:cx="21.642511"
         sodipodi:cy="46.763287"
         sodipodi:rx="12.838135"
         sodipodi:ry="12.838135"
         d="m 34.480646,46.763287 c 0,7.090306 -5.747829,12.838134 -12.838135,12.838134 -7.090306,0 -12.8381344,-5.747828 -12.8381344,-12.838134 0,-7.090306 5.7478284,-12.838135 12.8381344,-12.838135 7.090306,0 12.838135,5.747829 12.838135,12.838135 z"
         transform="translate(10.357489,973.59889)"
         inkscape:export-filename="E:\openstreetmap\tilemill\icons\dot_white_thick.png"
         inkscape:export-xdpi="26.195312"
         inkscape:export-ydpi="26.195312" />
    </g>
    <g
       id="g3780"
       transform="translate(58.153557,-56.185953)">
      <path
         transform="translate(63.701351,902.76524)"
         d="m 49.128345,46.763287 c 0,15.180007 -12.305827,27.485834 -27.485834,27.485834 -15.1800067,0 -27.4858338,-12.305827 -27.4858338,-27.485834 0,-15.180007 12.3058271,-27.485835 27.4858338,-27.485835 15.180007,0 27.485834,12.305828 27.485834,27.485835 z"
         sodipodi:ry="27.485834"
         sodipodi:rx="27.485834"
         sodipodi:cy="46.763287"
         sodipodi:cx="21.642511"
         id="path3769"
         style="fill:#ffffff;fill-opacity:1;stroke:none"
         sodipodi:type="arc"
         inkscape:export-filename="E:\openstreetmap\tilemill\icons\dot_white_thin.png"
         inkscape:export-xdpi="26.195312"
         inkscape:export-ydpi="26.195312" />
      <path
         sodipodi:type="arc"
         style="fill:#000000;fill-opacity:1;stroke:none"
         id="path3771"
         sodipodi:cx="21.642511"
         sodipodi:cy="46.763287"
         sodipodi:rx="24.425121"
         sodipodi:ry="24.425121"
         d="m 46.067633,46.763287 c 0,13.489622 -10.9355,24.425121 -24.425122,24.425121 -13.4896216,0 -24.4251209,-10.935499 -24.4251209,-24.425121 0,-13.489622 10.9354993,-24.425122 24.4251209,-24.425122 13.489622,0 24.425122,10.9355 24.425122,24.425122 z"
         transform="translate(63.701351,902.76524)"
         inkscape:export-filename="E:\openstreetmap\tilemill\icons\dot_white_thin.png"
         inkscape:export-xdpi="26.195312"
         inkscape:export-ydpi="26.195312" />
      <path
         inkscape:export-ydpi="26.195312"
         inkscape:export-xdpi="26.195312"
         inkscape:export-filename="E:\openstreetmap\tilemill\icons\dot_white_thin.png"
         transform="translate(63.701351,902.76524)"
         d="m 41.476562,46.763287 c 0,10.954044 -8.880007,19.834051 -19.834051,19.834051 -10.954044,0 -19.8340508,-8.880007 -19.8340508,-19.834051 0,-10.954044 8.8800068,-19.834052 19.8340508,-19.834052 10.954044,0 19.834051,8.880008 19.834051,19.834052 z"
         sodipodi:ry="19.834051"
         sodipodi:rx="19.834051"
         sodipodi:cy="46.763287"
         sodipodi:cx="21.642511"
         id="path3773"
         style="fill:#ffffff;fill-opacity:1;stroke:none"
         sodipodi:type="arc" />
    </g>
    <path
       transform="translate(10.357489,973.59889)"
       d="m 49.128345,46.763287 a 27.485834,27.485834 0 1 1 -54.9716678,0 27.485834,27.485834 0 1 1 54.9716678,0 z"
       sodipodi:ry="27.485834"
       sodipodi:rx="27.485834"
       sodipodi:cy="46.763287"
       sodipodi:cx="21.642511"
       id="path3791"
       style="fill:#ffffff;fill-opacity:1;stroke:none"
       sodipodi:type="arc"
       inkscape:export-filename="E:\openstreetmap\tilemill\icons\double_dot_thin.png"
       inkscape:export-xdpi="26.195312"
       inkscape:export-ydpi="26.195312" />
    <path
       sodipodi:type="arc"
       style="fill:#000000;fill-opacity:1;stroke:none"
       id="path3793"
       sodipodi:cx="21.642511"
       sodipodi:cy="46.763287"
       sodipodi:rx="24.425121"
       sodipodi:ry="24.425121"
       d="m 46.067633,46.763287 a 24.425121,24.425121 0 1 1 -48.8502429,0 24.425121,24.425121 0 1 1 48.8502429,0 z"
       transform="translate(10.357489,973.59889)"
       inkscape:export-filename="E:\openstreetmap\tilemill\icons\double_dot_thin.png"
       inkscape:export-xdpi="26.195312"
       inkscape:export-ydpi="26.195312" />
    <path
       inkscape:export-ydpi="26.195312"
       inkscape:export-xdpi="26.195312"
       inkscape:export-filename="E:\openstreetmap\tilemill\icons\double_dot_thin.png"
       transform="translate(10.357489,973.59889)"
       d="m 41.476562,46.763287 a 19.834051,19.834051 0 1 1 -39.6681018,0 19.834051,19.834051 0 1 1 39.6681018,0 z"
       sodipodi:ry="19.834051"
       sodipodi:rx="19.834051"
       sodipodi:cy="46.763287"
       sodipodi:cx="21.642511"
       id="path3795"
       style="fill:#ffffff;fill-opacity:1;stroke:none"
       sodipodi:type="arc" />
    <path
       sodipodi:type="arc"
       style="fill:#000000;fill-opacity:1;stroke:none"
       id="path3800"
       sodipodi:cx="21.642511"
       sodipodi:cy="46.763287"
       sodipodi:rx="15.024359"
       sodipodi:ry="15.024359"
       d="m 36.66687,46.763287 a 15.024359,15.024359 0 1 1 -30.0487174,0 15.024359,15.024359 0 1 1 30.0487174,0 z"
       transform="translate(10.357489,973.59889)"
       inkscape:export-filename="E:\openstreetmap\tilemill\icons\double_dot_thin.png"
       inkscape:export-xdpi="26.195312"
       inkscape:export-ydpi="26.195312" />
  </g>
</svg>
